/* XPM */
static char* render_pure3dLayeredShader[] = {
"32 32 64 1",
"  c #544548",
"! c #8D6671",
"# c #694D55",
"$ c #756E70",
"% c #795661",
"& c #EC8FB9",
"' c #B86C91",
"( c #C878A1",
") c #9E6F87",
"* c #EF92C4",
"+ c #9D5B80",
", c #D981B1",
"- c #EC91C4",
". c #EF96C8",
"/ c #EE9BCA",
"0 c #818084",
"1 c #C4C4CB",
"2 c #BEBEC1",
"3 c #C1C1C2",
"4 c #A7A7A8",
"5 c #CCCDD1",
"6 c #00040C",
"7 c #5B729B",
"8 c #546882",
"9 c #262C34",
": c #73A5E2",
"; c #50555A",
"< c #36383A",
"= c #1C374F",
"> c #619BCD",
"? c #69A5D8",
"@ c #42596C",
"A c #578FB8",
"B c #011523",
"C c #0E2C41",
"D c #285574",
"E c #3E6F92",
"F c #538CB2",
"G c #092435",
"H c #4E85A9",
"I c #10364B",
"J c #5393B8",
"K c #33566B",
"L c #2F4E60",
"M c #314551",
"N c #113141",
"O c #39718D",
"P c #335F75",
"Q c #447D9B",
"R c #255064",
"S c #1F3F4E",
"T c #34667E",
"U c #366C82",
"V c #0D3341",
"W c #09232D",
"X c #16404F",
"Y c #F1E47C",
"Z c #C1B565",
"[ c #AF9372",
"\ c #553E3C",
"] c #989696",
"^ c #B6B5B5",
"_ c #C2C2C2",
"` c #C1C1C1",
"________________________________",
"________________________________",
"________________________________",
"_________________^$$]___________",
"____________]]]0]!+!# ]123______",
"__________]![ZZ!'(''!%\;L;`_____",
"________])ZYYZ)(,,(''!# MSM2____",
"_______]ZYYYZ),&&,(''+;KODN<____",
"______][YYY[),/*&,,('#@FETRW4___",
"______!YYY['///.&,,'%8JHETRIG___",
"_____]ZYY['////-&,(!8>AFEUDXB]__",
"_____!ZY['/////-&,)8?>AFETRXGW__",
"____]ZY['/////.&,!8:?>JHEODXCB2_",
"____]![).///.--&!7:?>AFHOTDXVB^_",
"____2%+(--**&&(!7::?>FFQODRXNW0_",
"____0',&&&&&&(]7::?>AFHQODRXCB;_",
"___])'(,,,,,']7::?>AFFQOTDRICB0_",
"__4%+''(((,'07::?>>JFQEODR=IGB]_",
"__4%!+''''+0H:?>>>JFHQOTDRXIWB^_",
"___0%!+''!8A?>>>AFFHQOTDR=INWW2_",
"___4\%!+#8>>>>AJFFQQOTDR=XIWB9__",
"____  #;TJAFJJFFHQEOUDRRIIGBB0__",
"____5<MPHFFFFHHQEOUPDRRXINWBW2__",
"____@SPOEQQQQEEOOTDDR=XICWBB]___",
"____8NRDTOOOOOOTDDR=XIIGWBB;____",
"____`9I=RDDDDDDRRRXINCWWBB93____",
"_____^WGII====XXIINWWBBBB92_____",
"______^9BBGCINGWWWBBB66B;3______",
"________0B666BB6666666W]________",
"_________^0<B6666666W02_________",
"_____________^0;0]4^____________",
"________________________________"};