/* XPM */
static char* render_pure3dBumpMapShader[] = {
"32 32 64 1",
"  c #C5C6C7",
"! c #BEC0C1",
"# c #F3F7F8",
"$ c #E5EEF0",
"% c #B4BABB",
"& c #1B2A2C",
"' c #879B9E",
"( c #CCD3D4",
") c #466E73",
"* c #4A7479",
"+ c #558489",
", c #3E6064",
"- c #58888D",
". c #609399",
"/ c #5C8D93",
"0 c #43676B",
"1 c #30484B",
"2 c #72A1A6",
"3 c #78A8AD",
"4 c #7DAAAF",
"5 c #628488",
"6 c #85B0B5",
"7 c #7EA2A6",
"8 c #93B8BC",
"9 c #718D90",
": c #BBD3D6",
"; c #C9DCDE",
"< c #D0E1E3",
"= c #4E7A7E",
"> c #527F83",
"? c #375457",
"@ c #65979C",
"A c #283C3E",
"B c #6DA1A6",
"C c #6B9CA1",
"D c #73A5AA",
"E c #658F93",
"F c #557477",
"G c #435B5D",
"H c #7BA6AA",
"I c #81ADB1",
"J c #8AB4B8",
"K c #769598",
"L c #99BDC0",
"M c #A0C2C5",
"N c #A7C6C9",
"O c #8DA3A5",
"P c #B5CED0",
"Q c #C3D9DB",
"R c #748081",
"S c #849192",
"T c #A7B1B2",
"U c #E0EBEC",
"V c #506B6D",
"W c #5E7C7E",
"X c #ADCBCD",
"Y c #96A9AA",
"Z c #B0C1C2",
"[ c #D9E7E8",
"\ c #D6DDDD",
"] c #ECF3F3",
"^ c #C7C9C9",
"_ c #FBFCFC",
"` c #C2C2C2",
"```````````TS9FWPP'KT!``````````",
"`````````T9+*20A5Q:?AV'%````````",
"```````YW?0?11A&1?EHE>)VS!``````",
"``````SAAA1A1?AA110)>+=,1V%`````",
"````!R1AA?G0??GG=-0??1AA&&GT````",
"````Y&?0GVWEE5FGGV=????AA&&1T```",
"```ZQK8LJ8LNN849FVG,,)0?1AA&G!``",
"``T6;UU$U[[UU[;;X5G,=*0?AA&&&R``",
"``7CM[]]##]]]]]$U;8C@/>0,0,?A?T`",
"`T-/CL[]______##]U<PNNL865)->*9`",
"`LH-CIX[]#_______#$[;PPP::4CJL2%",
"%P668LIN<U]#____##][:JIJLXNJJJIZ",
"YLIJMMJN;Q[[$##_#]UQM2..BB3@/C6P",
"KIXMQ<:N;U[<<[U]]]UXJJ84I64@++CH",
"E@JN:[[<<[[;;[]$U$<PM88IBBD.==*@",
"E.D8X<[]###[;:::Q;MI3I6IC>+-+0,5",
"5-C2HX;[#___#[:NL6DC.@3DC.>,??0>",
"W/.2-@48<]____#]<:LJ4CC/=/.),+*E",
"K+CB.+/EK8X<$#___$:LJ2./*)=)=//7",
"O-2J/==+FWE9IXQ:X8I.->+>0,,,)+CY",
"T+=//*--FVGGVECH3C/EE=/-)=**/@B%",
"`90)-@->@C50,FECC@/+>.DC.@..2/C!",
"`Y+.>/.>>.4HK--.BB@@@2I6J8LJD@Z`",
"`!5>->*+CCBI66HCC.-/.D88JI36N<^`",
"``%G?00*+C33I8M8JI3B24JLJ48P[\``",
"```T0?,>>>--+..2J888M:Q;<[U[N!``",
"````8-)00/.-/.-.JM846M:;<<P7T```",
"```` NBE)+/DJB@C248J438NQXJT````",
"`````^;XLIH883BCBD34D.EC4LZ`````",
"`````` \;:ML3.3IBBDB/+-EY!``````",
"```````` (X./234@+=>HMZ!````````",
"``````````!T8LN:NMZZ(^``````````"};